M48
;GenerationSoftware,Autodesk,EAGLE,9.7.0*%
;CreationDate,2023-06-20T03:45:33Z*%
FMAT,2
ICI,OFF
METRIC,TZ,000.000
T4C0.600
T3C0.660
T2C0.762
T1C1.016
%
G90
M71
T1
X34290Y33020
X34290Y35560
X34290Y38100
T2
X33833Y44450
X38913Y44450
X41453Y44450
X43993Y44450
X46533Y44450
X49073Y44450
X51613Y44450
X54153Y44450
X56693Y44450
X59233Y44450
X61773Y44450
X64313Y44450
X66853Y44450
X69393Y44450
X71933Y44450
X74473Y44450
X77013Y44450
X79553Y44450
X82093Y44450
T3
X41720Y24130
X34480Y24130
T4
X82174Y33020
X79634Y33020
X77094Y33020
X74554Y33020
X72014Y33020
X69474Y33020
X66934Y33020
X64394Y33020
X61854Y33020
X59314Y33020
X56774Y33020
X54234Y33020
X51694Y33020
X49154Y33020
X49154Y30480
X49154Y27940
X49154Y25400
X49154Y22860
X49154Y20320
X49154Y17780
X51694Y17780
X54234Y17780
X56774Y17780
X59314Y17780
X61854Y17780
X64394Y17780
X66934Y17780
X69474Y17780
X72014Y17780
X74554Y17780
X77094Y17780
X79634Y17780
X82174Y17780
M30