G04 EAGLE Gerber RS-274X export*
G75*
%MOMM*%
%FSLAX34Y34*%
%LPD*%
%INBottom Copper*%
%IPPOS*%
%AMOC8*
5,1,8,0,0,1.08239X$1,22.5*%
G01*
G04 Define Apertures*
%ADD10C,1.524000*%
%ADD11C,1.260000*%
%ADD12C,1.270000*%
%ADD13C,1.108000*%
%ADD14C,0.812800*%
%ADD15C,0.152400*%
D10*
X350520Y330200D02*
X335280Y330200D01*
X335280Y355600D02*
X350520Y355600D01*
X350520Y381000D02*
X335280Y381000D01*
D11*
X417200Y241300D03*
X344800Y241300D03*
D12*
X338328Y444500D03*
X389128Y444500D03*
X414528Y444500D03*
X439928Y444500D03*
X465328Y444500D03*
X490728Y444500D03*
X516128Y444500D03*
X541528Y444500D03*
X566928Y444500D03*
X592328Y444500D03*
X617728Y444500D03*
X643128Y444500D03*
X668528Y444500D03*
X693928Y444500D03*
X719328Y444500D03*
X744728Y444500D03*
X770128Y444500D03*
X795528Y444500D03*
X820928Y444500D03*
D13*
X821738Y330200D03*
X796338Y330200D03*
X770938Y330200D03*
X745538Y330200D03*
X720138Y330200D03*
X694738Y330200D03*
X669338Y330200D03*
X643938Y330200D03*
X618538Y330200D03*
X593138Y330200D03*
X567738Y330200D03*
X542338Y330200D03*
X516938Y330200D03*
X491538Y330200D03*
X491538Y304800D03*
X491538Y279400D03*
X491538Y254000D03*
X491538Y228600D03*
X491538Y203200D03*
X491538Y177800D03*
X516938Y177800D03*
X542338Y177800D03*
X567738Y177800D03*
X593138Y177800D03*
X618538Y177800D03*
X643938Y177800D03*
X669338Y177800D03*
X694738Y177800D03*
X720138Y177800D03*
X745538Y177800D03*
X770938Y177800D03*
X796338Y177800D03*
X821738Y177800D03*
D14*
X355600Y355600D02*
X342900Y355600D01*
X355600Y355600D02*
X381000Y330200D01*
X381000Y154686D01*
X774700Y154686D01*
X796338Y176324D01*
X796338Y177800D01*
D15*
X643128Y330708D02*
X629412Y330708D01*
X524256Y435864D01*
X448056Y435864D01*
X440436Y443484D01*
X643128Y330708D02*
X643938Y330200D01*
X440436Y443484D02*
X439928Y444500D01*
X745236Y318516D02*
X745236Y178308D01*
X745236Y318516D02*
X728472Y335280D01*
X728472Y448056D01*
X722376Y454152D01*
X652272Y454152D01*
X643128Y445008D01*
X745236Y178308D02*
X745538Y177800D01*
X643128Y444500D02*
X643128Y445008D01*
X594360Y268224D02*
X594360Y178308D01*
X594360Y268224D02*
X667512Y341376D01*
X667512Y443484D01*
X594360Y178308D02*
X593138Y177800D01*
X667512Y443484D02*
X668528Y444500D01*
X618744Y268224D02*
X618744Y178308D01*
X618744Y268224D02*
X693420Y342900D01*
X693420Y443484D01*
X618744Y178308D02*
X618538Y177800D01*
X693420Y443484D02*
X693928Y444500D01*
X644652Y268224D02*
X644652Y178308D01*
X644652Y268224D02*
X719328Y342900D01*
X719328Y444500D01*
X644652Y178308D02*
X643938Y177800D01*
X670560Y176784D02*
X684276Y176784D01*
X691896Y169164D01*
X748284Y169164D01*
X754380Y175260D01*
X754380Y434340D01*
X745236Y443484D01*
X669338Y177800D02*
X670560Y176784D01*
X745236Y443484D02*
X744728Y444500D01*
X490728Y242316D02*
X490728Y228600D01*
X490728Y242316D02*
X390144Y342900D01*
X390144Y443484D01*
X490728Y228600D02*
X491538Y228600D01*
X390144Y443484D02*
X389128Y444500D01*
M02*
