G04 EAGLE Gerber RS-274X export*
G75*
%MOMM*%
%FSLAX34Y34*%
%LPD*%
%INSoldermask Bottom*%
%IPPOS*%
%AMOC8*
5,1,8,0,0,1.08239X$1,22.5*%
G01*
G04 Define Apertures*
%ADD10C,1.727200*%
%ADD11C,1.463200*%
%ADD12C,1.473200*%
%ADD13C,1.311200*%
D10*
X350520Y330200D02*
X335280Y330200D01*
X335280Y355600D02*
X350520Y355600D01*
X350520Y381000D02*
X335280Y381000D01*
D11*
X417200Y241300D03*
X344800Y241300D03*
D12*
X338328Y444500D03*
X389128Y444500D03*
X414528Y444500D03*
X439928Y444500D03*
X465328Y444500D03*
X490728Y444500D03*
X516128Y444500D03*
X541528Y444500D03*
X566928Y444500D03*
X592328Y444500D03*
X617728Y444500D03*
X643128Y444500D03*
X668528Y444500D03*
X693928Y444500D03*
X719328Y444500D03*
X744728Y444500D03*
X770128Y444500D03*
X795528Y444500D03*
X820928Y444500D03*
D13*
X821738Y330200D03*
X796338Y330200D03*
X770938Y330200D03*
X745538Y330200D03*
X720138Y330200D03*
X694738Y330200D03*
X669338Y330200D03*
X643938Y330200D03*
X618538Y330200D03*
X593138Y330200D03*
X567738Y330200D03*
X542338Y330200D03*
X516938Y330200D03*
X491538Y330200D03*
X491538Y304800D03*
X491538Y279400D03*
X491538Y254000D03*
X491538Y228600D03*
X491538Y203200D03*
X491538Y177800D03*
X516938Y177800D03*
X542338Y177800D03*
X567738Y177800D03*
X593138Y177800D03*
X618538Y177800D03*
X643938Y177800D03*
X669338Y177800D03*
X694738Y177800D03*
X720138Y177800D03*
X745538Y177800D03*
X770938Y177800D03*
X796338Y177800D03*
X821738Y177800D03*
M02*
